<?xml version="1.0" standalone="no"?>
<!DOCTYPE svg PUBLIC "-//W3C//DTD SVG 20010904//EN"
 "http://www.w3.org/TR/2001/REC-SVG-20010904/DTD/svg10.dtd">
<svg version="1.0" xmlns="http://www.w3.org/2000/svg"
 width="500.000000pt" height="500.000000pt" viewBox="0 0 500.000000 500.000000"
 preserveAspectRatio="xMidYMid meet">
<metadata>
Created by potrace 1.11, written by Peter Selinger 2001-2013
</metadata>
<g transform="translate(0.000000,500.000000) scale(0.100000,-0.100000)"
fill="#000000" stroke="none">
<path d="M2221 4133 c-146 -382 -430 -750 -744 -962 -168 -113 -345 -195 -529
-245 -110 -30 -247 -56 -297 -56 -57 0 -29 -10 85 -30 60 -10 135 -26 167 -34
31 -9 81 -22 110 -30 282 -76 547 -219 725 -391 197 -189 291 -394 310 -672
l7 -108 19 70 c46 173 151 409 238 538 229 339 497 495 877 510 l64 2 -94 38
c-52 21 -145 68 -208 104 -281 163 -485 379 -597 633 -82 186 -108 329 -102
559 2 89 3 161 3 161 -1 0 -16 -39 -34 -87z"/>
<path d="M2620 1736 c0 -3 24 -40 53 -83 121 -182 199 -380 220 -565 9 -83 8
-111 -6 -184 -21 -112 -83 -237 -153 -313 l-52 -57 111 56 c62 31 157 69 212
85 91 27 112 30 245 29 130 0 152 -3 212 -26 87 -33 168 -82 224 -135 24 -24
44 -40 44 -37 0 4 -16 48 -35 99 -106 284 -81 591 65 804 42 62 127 153 180
195 l35 27 -55 -22 c-146 -57 -182 -68 -272 -88 -53 -11 -129 -23 -170 -26
-40 -4 -88 -8 -107 -10 -58 -6 -217 14 -319 41 -112 29 -267 100 -364 167 -38
26 -68 45 -68 43z"/>
</g>
</svg>
